<?xml version="1.0" encoding="utf-8"?>
<!-- Generator: Adobe Illustrator 26.4.0, SVG Export Plug-In . SVG Version: 6.00 Build 0)  -->
<svg version="1.1" id="Ebene_1" xmlns="http://www.w3.org/2000/svg" xmlns:xlink="http://www.w3.org/1999/xlink" x="0px" y="0px"
	 viewBox="0 0 201.3 229" style="enable-background:new 0 0 201.3 229;" xml:space="preserve">
<style type="text/css">
	.st0{fill:#181716;}
	.st1{fill:#009DE2;}
	.st2{fill:#E2000B;}
	.st3{fill:#05A435;}
</style>
<g>
	<polygon class="st0" points="93.6,161.8 87.9,179.4 87.9,179.4 82.3,161.8 76.6,161.8 84.8,186.8 91,186.8 99.3,161.8 	"/>
	<path class="st0" d="M112.7,161.8h-11.3v25h5.5v-9h5.8c6.2,0,8.6-4,8.6-8C121.3,165.8,118.9,161.8,112.7,161.8z M111.2,173.6h-4.3
		v-7.5h4.3c2.6,0,4.8,0.6,4.8,3.7C116,173,113.7,173.6,111.2,173.6z"/>
	<polygon class="st0" points="130.2,176.1 142.3,176.1 142.3,171.8 130.2,171.8 130.2,166.4 143.4,166.4 143.4,161.8 124.7,161.8 
		124.7,186.8 143.7,186.8 143.7,182.2 130.2,182.2 	"/>
	<polygon class="st0" points="96.4,198.1 96.3,198.1 94.7,193.2 93.2,193.2 95.5,199.6 97.1,199.6 99.4,193.2 97.9,193.2 	"/>
	<path class="st0" d="M106.2,193c-1.9,0-3.1,1.6-3.1,3.4c0,2,1.1,3.4,3.2,3.4c1.4,0,2.6-0.8,2.9-2.2h-1.4c-0.2,0.7-0.8,1.1-1.6,1.1
		c-1.2,0-1.7-0.9-1.7-1.9h4.7C109.5,194.8,108.2,193,106.2,193z M104.5,195.8c0-1,0.7-1.7,1.7-1.7c1,0,1.6,0.8,1.6,1.7H104.5z"/>
	<path class="st0" d="M114.8,194.4L114.8,194.4l0-1.2h-1.3v6.5h1.4v-3.1c0-1.4,0.8-2.2,1.7-2.2c0.2,0,0.4,0,0.6,0.1V193
		c-0.1,0-0.2,0-0.5,0C115.8,193,115,193.7,114.8,194.4z"/>
	<path class="st0" d="M124.4,193c-0.7,0-1.5,0.4-1.9,1h0v-3.3H121v8.9h1.3v-0.9h0c0.4,0.9,1.4,1.1,2.2,1.1c1.9,0,2.8-1.6,2.8-3.4
		C127.4,194.6,126.4,193,124.4,193z M124.2,198.7c-1.1,0-1.8-1-1.8-2.3c0-1.4,0.6-2.3,1.8-2.3c1.2,0,1.8,1.1,1.8,2.3
		C126,197.5,125.5,198.7,124.2,198.7z"/>
	<rect x="131.8" y="193.2" class="st0" width="1.4" height="6.5"/>
	<rect x="131.8" y="190.7" class="st0" width="1.4" height="1.3"/>
	<path class="st0" d="M141.3,193c-0.8,0-1.6,0.4-2,1.2l0,0v-0.9h-1.3v6.5h1.4v-3.8c0-0.9,0.6-1.7,1.6-1.7c0.8,0,1.2,0.4,1.3,1.4v4.1
		h1.4v-4.4C143.5,193.8,142.7,193,141.3,193z"/>
	<path class="st0" d="M152.8,194L152.8,194c-0.5-0.7-1.4-1-2.2-1c-1.4,0-2.8,1-2.8,3.4c0,1.9,1,3.4,3,3.4c0.8,0,1.6-0.3,2-1h0v0.9
		h1.3v-8.9h-1.4V194z M151.1,198.7c-1.2,0-1.8-1.1-1.8-2.2c0-1.2,0.5-2.3,1.8-2.3c1.1,0,1.8,0.8,1.8,2.3
		C152.9,197.5,152.3,198.7,151.1,198.7z"/>
	<path class="st0" d="M161.7,193c-1.9,0-3.1,1.6-3.1,3.4c0,2,1.1,3.4,3.2,3.4c1.4,0,2.6-0.8,2.9-2.2h-1.3c-0.2,0.7-0.8,1.1-1.6,1.1
		c-1.2,0-1.7-0.9-1.7-1.9h4.7C165,194.8,163.8,193,161.7,193z M160,195.8c0-1,0.7-1.7,1.7-1.7c1,0,1.6,0.8,1.6,1.7H160z"/>
	<path class="st0" d="M172.1,194.2v-1.1h-1.3v-1.9h-1.4v1.9h-1.1v1.1h1.1v3.8c0,1.1,0.3,1.7,1.8,1.7c0.3,0,0.6,0,0.9-0.1v-1.1
		c-0.2,0-0.4,0-0.6,0c-0.6,0-0.7-0.3-0.7-0.9v-3.5H172.1z"/>
</g>
<path class="st1" d="M152.9,60.4c-3.7-0.1-7.2,1.2-9.9,3.7s-4.3,5.9-4.4,9.6c-0.1,2.7,0.6,5.3,1.9,7.5l-9.3,8.4
	c-4.3-3.6-9.7-5.8-15.7-6c-1.9-0.1-3.7,0.1-5.5,0.4l1.7,5.7c1.2-0.2,2.4-0.2,3.6-0.2c6.6,0.2,12.3,3.6,15.8,8.6l2.1-1.9l0,0
	l11.6-10.5c2,1.3,4.4,2.2,7.1,2.3c0.2,0,0.3,0,0.5,0c7.4,0,13.5-5.9,13.8-13.3v0C166.4,67,160.5,60.6,152.9,60.4z M152.1,81.7
	c-4.1-0.1-7.4-3.6-7.2-7.8c0.1-2,0.9-3.9,2.4-5.2c1.4-1.3,3.2-2,5.1-2c0.1,0,0.2,0,0.3,0c4.1,0.1,7.4,3.6,7.2,7.8
	C159.7,78.6,156.3,81.8,152.1,81.7z"/>
<path class="st2" d="M161.1,116.4c-4.1-0.1-7.8,1.8-10,4.9l-11.4-4.7c0.5-1.9,0.8-3.9,0.9-6c0.2-6.1-1.7-11.8-5.1-16.4l-4.4,4
	c2.4,3.4,3.8,7.7,3.6,12.2c-0.1,3.6-1.2,6.9-2.9,9.8l5.5,2.3c0,0,0,0,0,0l11.6,4.8c0,0.2,0,0.4-0.1,0.6c-0.2,6.5,4.9,12,11.4,12.3
	c0.1,0,0.3,0,0.4,0c3,0,5.9-1.1,8.1-3.2c2.3-2.2,3.7-5.1,3.8-8.2C172.8,122.1,167.7,116.6,161.1,116.4z M164.5,132.3
	c-1.1,1-2.5,1.5-4,1.5c-3-0.1-5.4-2.7-5.3-5.7c0.1-3,2.6-5.3,5.5-5.3c0.1,0,0.1,0,0.2,0c3,0.1,5.4,2.7,5.3,5.7
	C166.2,129.9,165.6,131.3,164.5,132.3z"/>
<path class="st3" d="M127.3,138.5c-0.2,0-0.4,0-0.6,0l-1.5-5c5.1-2.3,9.4-6.1,12.2-11l-5.5-2.3c-3.7,6-10.4,9.9-17.9,9.7
	c-11.1-0.4-19.8-9.7-19.4-20.8c0.3-9.9,7.8-17.9,17.2-19.2L110,84c0,0,0,0,0,0L100,51c3.2-2.1,5.3-5.6,5.5-9.7
	c0.2-6.7-5-12.3-11.7-12.6c-6.7-0.2-12.3,5-12.6,11.7C81,47.1,86.3,52.8,93,53c0.4,0,0.7,0,1.1,0l9.9,32.9c-5,2.2-9.1,5.9-11.8,10.6
	L56.8,83.2c0-0.4,0.1-0.8,0.1-1.1c0.1-2.1-0.3-4.2-1.2-6.2c-3.2-7.1-11.5-10.2-18.6-7.1C32,71,29,75.9,28.8,81.1
	c-0.1,2.1,0.3,4.2,1.2,6.2c3.2,7.1,11.5,10.2,18.6,7.1c2.6-1.2,4.7-3,6.1-5.3l34.9,13.2c-0.6,2.1-1,4.2-1.1,6.5
	c-0.2,6.7,2.1,12.9,6,17.6l-41.4,39.8c-0.3-0.2-0.7-0.4-1.1-0.6c-9-4.3-19.8-0.6-24.1,8.4c-1.1,2.3-1.7,4.8-1.8,7.2
	c-0.2,6.9,3.6,13.7,10.2,16.9c9,4.3,19.8,0.6,24.1-8.4c1.1-2.3,1.7-4.8,1.8-7.2c0.2-4.5-1.4-8.9-4.3-12.3l41.1-39.6
	c4.1,3,9.1,4.8,14.5,5c1.9,0.1,3.7-0.1,5.4-0.4l1.7,5.4c-2,1.7-3.4,4.2-3.5,7.1c-0.2,5.3,4,9.8,9.3,10c5.3,0.2,9.8-4,10-9.3
	C136.8,143.2,132.6,138.7,127.3,138.5z M87.6,40.7c0.1-3.2,2.8-5.7,6-5.6c3.2,0.1,5.7,2.8,5.6,6c-0.1,3.2-2.8,5.7-6,5.6
	C90,46.6,87.5,43.9,87.6,40.7z M46,88.6c-3.9,1.8-8.5,0-10.3-3.9c-0.5-1.1-0.7-2.2-0.7-3.4c0.1-3,1.9-5.6,4.6-6.8
	c1.9-0.8,4-0.9,5.9-0.2c1.9,0.7,3.5,2.2,4.3,4.1c0.5,1.1,0.7,2.2,0.7,3.4C50.5,84.8,48.8,87.4,46,88.6z M54.9,187
	c-1.4,2.8-3.7,4.9-6.7,6s-6.2,0.9-9-0.5c-4.2-2-6.8-6.4-6.6-11c0.1-1.6,0.4-3.2,1.2-4.7c1.4-2.8,3.8-4.9,6.7-6c3-1,6.2-0.9,9,0.5
	c4.2,2,6.8,6.4,6.6,11C56,184,55.6,185.5,54.9,187z M126.8,151.5c-1.8-0.1-3.3-1.6-3.2-3.4c0.1-1.8,1.6-3.3,3.4-3.2
	c1.8,0.1,3.3,1.6,3.2,3.4C130.2,150.1,128.6,151.6,126.8,151.5z"/>
</svg>
